<svg xmlns="http://www.w3.org/2000/svg" version="1.1" xmlns:xlink="http://www.w3.org/1999/xlink" width="17" height="10"><svg width="17" height="10" viewBox="0 0 17 10" fill="none" xmlns="http://www.w3.org/2000/svg">
<path d="M4.21289 6.38086V0.46875H5.96484V6.38086C5.96484 6.95117 5.83984 7.44141 5.58984 7.85156C5.33984 8.25781 4.99805 8.57031 4.56445 8.78906C4.13477 9.00781 3.65039 9.11719 3.11133 9.11719C2.55273 9.11719 2.05859 9.02344 1.62891 8.83594C1.19922 8.64844 0.861328 8.36133 0.615234 7.97461C0.369141 7.58398 0.246094 7.08984 0.246094 6.49219H2.00977C2.00977 6.80469 2.05273 7.05273 2.13867 7.23633C2.22852 7.41992 2.35547 7.55078 2.51953 7.62891C2.68359 7.70703 2.88086 7.74609 3.11133 7.74609C3.33398 7.74609 3.52734 7.69336 3.69141 7.58789C3.85547 7.48242 3.98242 7.32812 4.07227 7.125C4.16602 6.92188 4.21289 6.67383 4.21289 6.38086ZM9.52148 7.64648L11.2207 0.46875H12.1699L12.3867 1.66406L10.5762 9H9.55664L9.52148 7.64648ZM8.64844 0.46875L10.0547 7.64648L9.9375 9H8.80078L6.9082 0.46875H8.64844ZM13.8809 7.61719L15.2695 0.46875H17.0098L15.123 9H13.9863L13.8809 7.61719ZM12.7031 0.46875L14.4141 7.67578L14.3672 9H13.3477L11.5254 1.6582L11.7598 0.46875H12.7031Z" fill="black"></path>
</svg><style>@media (prefers-color-scheme: light) { :root { filter: none; } }
@media (prefers-color-scheme: dark) { :root { filter: invert(100%); } }
</style></svg>